<svg xmlns="http://www.w3.org/2000/svg" viewBox="0 0 190.04 162.24"><path fill="#231f20" d="M5.74 155.03h5.87l.04 2.65c0 1.93-.36 3.17-1.09 3.73-.73.55-2.34.83-4.86.83-2.3 0-3.83-.37-4.58-1.11-.75-.75-1.12-2.26-1.12-4.54 0-2.92.15-4.76.45-5.53.37-.94.93-1.57 1.69-1.9.75-.32 2.04-.49 3.85-.49 2.37 0 3.9.26 4.59.76s1.03 1.62 1.03 3.36H9.05c-.04-.88-.23-1.42-.57-1.63-.33-.21-1.18-.32-2.52-.32-1.47 0-2.4.19-2.8.55-.39.36-.58 1.22-.58 2.57l-.01 1.34.02 1.7c0 1.33.2 2.17.58 2.53.4.36 1.3.54 2.72.54 1.38 0 2.26-.15 2.63-.46.37-.3.56-1.03.56-2.16l.01-.55H5.74v-1.87m11.42.47h3.63c.86 0 1.44-.15 1.72-.46.29-.31.43-.93.43-1.86 0-.95-.12-1.57-.37-1.84-.24-.28-.78-.42-1.6-.42h-3.81zm-2.53 6.62V148.8h6.57c1.63 0 2.76.29 3.38.85.62.57.93 1.6.93 3.08 0 1.35-.16 2.27-.47 2.76-.3.5-.94.84-1.9 1.03v.08c1.48.1 2.22.96 2.22 2.6v2.93h-2.53v-2.43c0-1.37-.68-2.06-2.03-2.06h-3.64v4.5h-2.53m21.7-16.51v1.56h-1.72v-1.56zm-3.67 0v1.56h-1.73v-1.56zm1 5.21c-1.7 0-2.7.22-2.98.66-.29.43-.43 1.94-.43 4.53 0 1.91.17 3.06.5 3.46.34.39 1.33.58 2.97.58 1.57 0 2.5-.22 2.82-.66.31-.44.47-1.77.47-4s-.15-3.55-.45-3.96c-.3-.4-1.26-.6-2.9-.6zm.2-2.17c2.42 0 3.97.4 4.67 1.21.7.8 1.05 2.6 1.05 5.4 0 3.05-.35 4.97-1.05 5.77-.7.8-2.4 1.19-5.09 1.19-2.42 0-3.98-.4-4.7-1.18-.7-.78-1.06-2.5-1.06-5.18 0-3.17.35-5.17 1.05-5.98.7-.82 2.4-1.23 5.12-1.23m20.81.13v13.32h-4.29l-3.8-7.31c-.2-.37-.5-1-.9-1.92l-.43-.95-.42-.96h-.1l.05.88.03.87.01 1.75v7.64H42.3V148.8h4.28l3.47 6.76c.3.6.66 1.32 1.06 2.18l.51 1.08.5 1.1h.1l-.03-.86-.03-.86-.02-1.72v-7.68h2.53m8.44 2.26v11.06h-2.53v-11.06h-3.84v-2.27H67.1v2.27h-4m14.8-2.26v5.42h1.2l4.43-5.43h3.15l-5.38 6.48 5.94 6.85H84l-4.88-5.77H77.9v5.77h-2.53V148.8h2.53m19.44 0h2.53v8.86c0 1.86-.35 3.08-1.07 3.68-.71.6-2.17.9-4.37.9-2.32 0-3.85-.28-4.57-.85-.72-.57-1.08-1.76-1.08-3.58v-9.02h2.53v9.02c0 .98.17 1.6.52 1.87.36.26 1.18.4 2.49.4 1.33 0 2.17-.14 2.51-.4.34-.27.51-.93.51-1.97v-8.92m8.4.01v11.06h6.25v2.26h-8.78V148.8h2.53m11.84 2.26v11.06h-2.53v-11.06h-3.85v-2.27h10.36v2.27h-3.98m14.6-2.26h2.52v8.86c0 1.86-.35 3.08-1.07 3.68-.7.6-2.17.9-4.37.9-2.32 0-3.84-.28-4.57-.85-.72-.57-1.08-1.76-1.08-3.58v-9.02h2.53v9.02c0 .98.18 1.6.53 1.87.35.26 1.18.4 2.48.4 1.33 0 2.17-.14 2.51-.4.34-.27.52-.93.52-1.97v-8.92m7.97 6.71h3.64c.86 0 1.44-.15 1.72-.46.29-.31.43-.93.43-1.86 0-.95-.13-1.57-.37-1.84-.24-.28-.78-.42-1.6-.42h-3.82zm-2.52 6.62V148.8h6.57c1.63 0 2.76.29 3.38.85.62.57.93 1.6.93 3.08 0 1.35-.16 2.27-.47 2.76-.3.5-.94.84-1.9 1.03v.08c1.48.1 2.22.96 2.22 2.6v2.93h-2.53v-2.43c0-1.37-.68-2.06-2.03-2.06h-3.65v4.5h-2.52m21.4-4.44-2.3-6.95-2.27 6.95zm.59 1.86h-5.75l-.84 2.56h-2.67l4.43-13.33h3.8l4.5 13.33h-2.62l-.85-2.56m8.09-4.06h3.64c.86 0 1.44-.15 1.72-.46.29-.31.43-.93.43-1.86 0-.95-.13-1.57-.37-1.84-.24-.28-.78-.42-1.6-.42h-3.82zm-2.52 6.62V148.8h6.57c1.63 0 2.76.29 3.38.85.62.57.93 1.6.93 3.08 0 1.35-.16 2.27-.47 2.76-.3.5-.94.84-1.9 1.03v.08c1.48.1 2.22.96 2.22 2.6v2.93h-2.53v-2.43c0-1.37-.68-2.06-2.03-2.06h-3.65v4.5h-2.52m22.17-13.34h2.68l-4.3 13.32h-3.88l-4.26-13.33h2.63l2.5 7.55c.23.72.58 1.93 1.04 3.63h.07l.25-.9c.32-1.14.58-2.04.8-2.72l2.47-7.56"/><path fill="#ed1c24" d="M93.96 130.87c1.97-16.67 12.52-22.45 24.55-25.58-5.63-7.85-13.2-12.04-23.53-13.12h-2.55c-10.97 1.42-18.67 5.81-23.4 13.4 13.66 3.47 21.74 11.97 24.07 25.3h.86"/><path fill="#80cc28" d="m96.22 39.06 38.8-25.51a66.57 66.57 0 0 0-17.43-9.56L96.22 18.13v20.93m-5.33.98V18.93L69.96 4.7a66.73 66.73 0 0 0-18.63 11.28l39.56 24.06m0 32.77V46.28L47.26 19.75a66.74 66.74 0 0 0-14.4 21.83l58.03 31.23m0 13.61v-7.55L31.02 46.65a66.65 66.65 0 0 0-2.8 25.74L71.1 94.62c5.13-4.28 11.74-7.03 19.79-8.2m5.33-74.68 14.76-9.77A66.8 66.8 0 0 0 96.22-.01v11.75m0 33.71v26.6l57.27-36.87a66.98 66.98 0 0 0-14.16-18.07l-43.1 28.34m22.4 51.15a41.3 41.3 0 0 1 6.52 8.46l.18.3c6.26.86 12.18 3.8 16.6 8.36a66.46 66.46 0 0 0 19.31-42.77L118.63 96.6m37.21-56.59L96.22 78.4v7.96c7.03.82 13.04 3 18.1 6.61l47.02-28.3a66.36 66.36 0 0 0-5.5-24.65m-92.94 65.1c1.2-2.4 2.61-4.58 4.25-6.54L29.09 78.85a66.5 66.5 0 0 0 17.1 33.61c4.32-4.24 10.1-6.75 16.71-7.34m27.99-92.64V.07a66.4 66.4 0 0 0-14.61 2.47l14.6 9.94"/><path fill="#00a650" d="M68.65 110.56a21.95 21.95 0 0 0-18.77 5.64 66.43 66.43 0 0 0 37.9 16.6h.08c-1.57-11.68-7.63-19.32-19.2-22.24m51.94.02c-1.6.1-3.15.36-4.61.73-4.9 1.74-8.85 4.12-11.66 7.7a22.9 22.9 0 0 0-3.43 6.73 32.32 32.32 0 0 0-1.26 7.05h1.88a66.4 66.4 0 0 0 36.76-15.6 23.2 23.2 0 0 0-17.67-6.61"/></svg>